<mxfile host="app.diagrams.net" modified="2021-12-08T10:55:31.122Z" agent="5.0 (Windows NT 10.0; Win64; x64) AppleWebKit/537.36 (KHTML, like Gecko) Chrome/96.0.4664.45 Safari/537.36" etag="P-EQ5wgBRMFXKS5RoeZr" version="15.9.1" type="github">
  <diagram id="dsJ7s2vMgQMwFVYu8buw" name="Page-1">
    <mxGraphModel dx="1729" dy="978" grid="1" gridSize="10" guides="1" tooltips="1" connect="1" arrows="1" fold="1" page="1" pageScale="1" pageWidth="827" pageHeight="1169" math="0" shadow="0">
      <root>
        <mxCell id="0" />
        <mxCell id="1" parent="0" />
        <mxCell id="uWJtjKGiHwzr4gWqTYHl-3" style="edgeStyle=orthogonalEdgeStyle;rounded=0;orthogonalLoop=1;jettySize=auto;html=1;exitX=1;exitY=0.5;exitDx=0;exitDy=0;entryX=0;entryY=0.5;entryDx=0;entryDy=0;endArrow=none;endFill=0;" parent="1" source="gx2fqg2UMWbFpVax5CwM-1" target="gx2fqg2UMWbFpVax5CwM-11" edge="1">
          <mxGeometry relative="1" as="geometry" />
        </mxCell>
        <mxCell id="jzE8oIi-crpwVp-MOxEN-11" style="rounded=0;orthogonalLoop=1;jettySize=auto;html=1;exitX=0.5;exitY=0;exitDx=0;exitDy=0;fontColor=#000000;endArrow=oval;endFill=0;" parent="1" source="gx2fqg2UMWbFpVax5CwM-1" target="jzE8oIi-crpwVp-MOxEN-12" edge="1">
          <mxGeometry relative="1" as="geometry">
            <mxPoint x="960.702380952381" y="687" as="targetPoint" />
          </mxGeometry>
        </mxCell>
        <mxCell id="VWWuzck4U35PcZzD3d7Q-49" style="edgeStyle=none;rounded=0;orthogonalLoop=1;jettySize=auto;html=1;exitX=0;exitY=1;exitDx=0;exitDy=0;entryX=0.5;entryY=0;entryDx=0;entryDy=0;fontSize=11;endArrow=oval;endFill=0;" parent="1" source="gx2fqg2UMWbFpVax5CwM-1" target="jzE8oIi-crpwVp-MOxEN-34" edge="1">
          <mxGeometry relative="1" as="geometry" />
        </mxCell>
        <mxCell id="VWWuzck4U35PcZzD3d7Q-50" style="edgeStyle=none;rounded=0;orthogonalLoop=1;jettySize=auto;html=1;exitX=0.25;exitY=1;exitDx=0;exitDy=0;entryX=0.5;entryY=0;entryDx=0;entryDy=0;fontSize=11;endArrow=oval;endFill=0;" parent="1" source="gx2fqg2UMWbFpVax5CwM-1" edge="1">
          <mxGeometry relative="1" as="geometry">
            <mxPoint x="929" y="804.5" as="targetPoint" />
          </mxGeometry>
        </mxCell>
        <mxCell id="VWWuzck4U35PcZzD3d7Q-51" style="edgeStyle=none;rounded=0;orthogonalLoop=1;jettySize=auto;html=1;exitX=0.5;exitY=1;exitDx=0;exitDy=0;entryX=0.5;entryY=0;entryDx=0;entryDy=0;fontSize=11;endArrow=oval;endFill=1;" parent="1" source="gx2fqg2UMWbFpVax5CwM-1" target="jzE8oIi-crpwVp-MOxEN-38" edge="1">
          <mxGeometry relative="1" as="geometry" />
        </mxCell>
        <mxCell id="gx2fqg2UMWbFpVax5CwM-1" value="&lt;b&gt;CLIENTE&lt;/b&gt;" style="whiteSpace=wrap;html=1;align=center;fontColor=#000000;" parent="1" vertex="1">
          <mxGeometry x="910.75" y="727" width="100" height="40" as="geometry" />
        </mxCell>
        <mxCell id="uWJtjKGiHwzr4gWqTYHl-6" style="edgeStyle=orthogonalEdgeStyle;rounded=0;orthogonalLoop=1;jettySize=auto;html=1;exitX=1;exitY=0.5;exitDx=0;exitDy=0;entryX=0;entryY=0.5;entryDx=0;entryDy=0;endArrow=none;endFill=0;" parent="1" source="gx2fqg2UMWbFpVax5CwM-2" target="gx2fqg2UMWbFpVax5CwM-18" edge="1">
          <mxGeometry relative="1" as="geometry" />
        </mxCell>
        <mxCell id="uWJtjKGiHwzr4gWqTYHl-18" style="edgeStyle=orthogonalEdgeStyle;rounded=0;orthogonalLoop=1;jettySize=auto;html=1;exitX=0.25;exitY=0;exitDx=0;exitDy=0;entryX=0.5;entryY=1;entryDx=0;entryDy=0;endArrow=none;endFill=0;" parent="1" source="gx2fqg2UMWbFpVax5CwM-2" target="FtTrVJw0tq06EMOVsZJ_-155" edge="1">
          <mxGeometry relative="1" as="geometry">
            <Array as="points">
              <mxPoint x="1252.5" y="607" />
              <mxPoint x="1177.5" y="607" />
            </Array>
          </mxGeometry>
        </mxCell>
        <mxCell id="uWJtjKGiHwzr4gWqTYHl-19" style="edgeStyle=orthogonalEdgeStyle;rounded=0;orthogonalLoop=1;jettySize=auto;html=1;exitX=0.75;exitY=0;exitDx=0;exitDy=0;entryX=0.5;entryY=1;entryDx=0;entryDy=0;endArrow=none;endFill=0;" parent="1" source="gx2fqg2UMWbFpVax5CwM-2" target="FtTrVJw0tq06EMOVsZJ_-159" edge="1">
          <mxGeometry relative="1" as="geometry">
            <Array as="points">
              <mxPoint x="1302.5" y="607" />
              <mxPoint x="1387.5" y="607" />
            </Array>
          </mxGeometry>
        </mxCell>
        <mxCell id="uWJtjKGiHwzr4gWqTYHl-37" style="rounded=0;orthogonalLoop=1;jettySize=auto;html=1;exitX=1;exitY=0;exitDx=0;exitDy=0;fontSize=11;endArrow=oval;endFill=0;entryX=0.25;entryY=1;entryDx=0;entryDy=0;" parent="1" source="gx2fqg2UMWbFpVax5CwM-2" target="uWJtjKGiHwzr4gWqTYHl-38" edge="1">
          <mxGeometry relative="1" as="geometry">
            <mxPoint x="1356.5" y="687" as="targetPoint" />
          </mxGeometry>
        </mxCell>
        <mxCell id="uWJtjKGiHwzr4gWqTYHl-89" style="edgeStyle=none;rounded=0;orthogonalLoop=1;jettySize=auto;html=1;exitX=0;exitY=0;exitDx=0;exitDy=0;fontSize=9;endArrow=oval;endFill=0;" parent="1" source="gx2fqg2UMWbFpVax5CwM-2" target="uWJtjKGiHwzr4gWqTYHl-90" edge="1">
          <mxGeometry relative="1" as="geometry">
            <mxPoint x="1206.5" y="697" as="targetPoint" />
          </mxGeometry>
        </mxCell>
        <mxCell id="uWJtjKGiHwzr4gWqTYHl-91" style="edgeStyle=none;rounded=0;orthogonalLoop=1;jettySize=auto;html=1;exitX=0;exitY=0.75;exitDx=0;exitDy=0;fontSize=9;endArrow=oval;endFill=1;" parent="1" source="gx2fqg2UMWbFpVax5CwM-2" target="uWJtjKGiHwzr4gWqTYHl-92" edge="1">
          <mxGeometry relative="1" as="geometry">
            <mxPoint x="1196.5" y="767" as="targetPoint" />
          </mxGeometry>
        </mxCell>
        <mxCell id="uWJtjKGiHwzr4gWqTYHl-93" style="edgeStyle=none;rounded=0;orthogonalLoop=1;jettySize=auto;html=1;exitX=0;exitY=1;exitDx=0;exitDy=0;fontSize=9;endArrow=oval;endFill=0;" parent="1" source="gx2fqg2UMWbFpVax5CwM-2" target="uWJtjKGiHwzr4gWqTYHl-94" edge="1">
          <mxGeometry relative="1" as="geometry">
            <mxPoint x="1216.5" y="797" as="targetPoint" />
          </mxGeometry>
        </mxCell>
        <mxCell id="uWJtjKGiHwzr4gWqTYHl-95" style="edgeStyle=none;rounded=0;orthogonalLoop=1;jettySize=auto;html=1;exitX=1;exitY=1;exitDx=0;exitDy=0;fontSize=9;endArrow=oval;endFill=0;" parent="1" source="gx2fqg2UMWbFpVax5CwM-2" target="uWJtjKGiHwzr4gWqTYHl-96" edge="1">
          <mxGeometry relative="1" as="geometry">
            <mxPoint x="1326.5" y="797" as="targetPoint" />
          </mxGeometry>
        </mxCell>
        <mxCell id="uWJtjKGiHwzr4gWqTYHl-97" style="edgeStyle=none;rounded=0;orthogonalLoop=1;jettySize=auto;html=1;exitX=1;exitY=0.75;exitDx=0;exitDy=0;fontSize=9;endArrow=oval;endFill=0;" parent="1" source="gx2fqg2UMWbFpVax5CwM-2" target="uWJtjKGiHwzr4gWqTYHl-98" edge="1">
          <mxGeometry relative="1" as="geometry">
            <mxPoint x="1356.5" y="787" as="targetPoint" />
          </mxGeometry>
        </mxCell>
        <mxCell id="uWJtjKGiHwzr4gWqTYHl-115" style="edgeStyle=none;rounded=0;orthogonalLoop=1;jettySize=auto;html=1;exitX=0.5;exitY=0;exitDx=0;exitDy=0;fontSize=9;endArrow=oval;endFill=0;" parent="1" source="gx2fqg2UMWbFpVax5CwM-2" target="uWJtjKGiHwzr4gWqTYHl-116" edge="1">
          <mxGeometry relative="1" as="geometry">
            <mxPoint x="1277.611111111111" y="697" as="targetPoint" />
          </mxGeometry>
        </mxCell>
        <mxCell id="gx2fqg2UMWbFpVax5CwM-2" value="&lt;b&gt;MACCHINARIO&lt;/b&gt;" style="whiteSpace=wrap;html=1;align=center;" parent="1" vertex="1">
          <mxGeometry x="1227.5" y="727" width="100" height="40" as="geometry" />
        </mxCell>
        <mxCell id="uWJtjKGiHwzr4gWqTYHl-85" style="edgeStyle=none;rounded=0;orthogonalLoop=1;jettySize=auto;html=1;exitX=1;exitY=0;exitDx=0;exitDy=0;fontSize=9;endArrow=oval;endFill=0;" parent="1" source="gx2fqg2UMWbFpVax5CwM-5" target="uWJtjKGiHwzr4gWqTYHl-86" edge="1">
          <mxGeometry relative="1" as="geometry">
            <mxPoint x="1466.5" y="417.0000000000001" as="targetPoint" />
          </mxGeometry>
        </mxCell>
        <mxCell id="uWJtjKGiHwzr4gWqTYHl-87" style="edgeStyle=none;rounded=0;orthogonalLoop=1;jettySize=auto;html=1;exitX=1;exitY=0.5;exitDx=0;exitDy=0;fontSize=9;endArrow=oval;endFill=1;" parent="1" source="gx2fqg2UMWbFpVax5CwM-5" target="uWJtjKGiHwzr4gWqTYHl-88" edge="1">
          <mxGeometry relative="1" as="geometry">
            <mxPoint x="1466.5" y="446.94444444444446" as="targetPoint" />
          </mxGeometry>
        </mxCell>
        <mxCell id="gx2fqg2UMWbFpVax5CwM-5" value="&lt;b&gt;PROGETTO&lt;/b&gt;" style="whiteSpace=wrap;html=1;align=center;" parent="1" vertex="1">
          <mxGeometry x="1337.5" y="427" width="100" height="40" as="geometry" />
        </mxCell>
        <mxCell id="uWJtjKGiHwzr4gWqTYHl-26" style="edgeStyle=orthogonalEdgeStyle;rounded=0;orthogonalLoop=1;jettySize=auto;html=1;exitX=0.5;exitY=1;exitDx=0;exitDy=0;entryX=0.5;entryY=0;entryDx=0;entryDy=0;endArrow=none;endFill=0;" parent="1" source="gx2fqg2UMWbFpVax5CwM-6" target="FtTrVJw0tq06EMOVsZJ_-156" edge="1">
          <mxGeometry relative="1" as="geometry" />
        </mxCell>
        <mxCell id="uWJtjKGiHwzr4gWqTYHl-31" style="edgeStyle=orthogonalEdgeStyle;rounded=0;orthogonalLoop=1;jettySize=auto;html=1;exitX=1;exitY=0.5;exitDx=0;exitDy=0;endArrow=none;endFill=0;" parent="1" source="gx2fqg2UMWbFpVax5CwM-6" target="gx2fqg2UMWbFpVax5CwM-17" edge="1">
          <mxGeometry relative="1" as="geometry" />
        </mxCell>
        <mxCell id="uWJtjKGiHwzr4gWqTYHl-66" style="edgeStyle=none;rounded=0;orthogonalLoop=1;jettySize=auto;html=1;fontSize=9;endArrow=oval;endFill=0;startArrow=none;exitX=1;exitY=0;exitDx=0;exitDy=0;" parent="1" source="gx2fqg2UMWbFpVax5CwM-6" target="uWJtjKGiHwzr4gWqTYHl-67" edge="1">
          <mxGeometry relative="1" as="geometry">
            <mxPoint x="1256.5" y="197" as="targetPoint" />
            <mxPoint x="1286.5" y="217" as="sourcePoint" />
          </mxGeometry>
        </mxCell>
        <mxCell id="rHscnQnr_pqCsqy7i4I7-1" style="rounded=0;orthogonalLoop=1;jettySize=auto;html=1;exitX=1;exitY=1;exitDx=0;exitDy=0;endArrow=oval;endFill=1;" parent="1" source="gx2fqg2UMWbFpVax5CwM-6" edge="1">
          <mxGeometry relative="1" as="geometry">
            <mxPoint x="1217.25" y="252" as="targetPoint" />
          </mxGeometry>
        </mxCell>
        <mxCell id="rHscnQnr_pqCsqy7i4I7-5" style="rounded=0;sketch=0;orthogonalLoop=1;jettySize=auto;html=1;exitX=1;exitY=1;exitDx=0;exitDy=0;fontSize=9;endArrow=oval;endFill=1;entryX=0.5;entryY=0;entryDx=0;entryDy=0;" parent="1" source="gx2fqg2UMWbFpVax5CwM-6" target="rHscnQnr_pqCsqy7i4I7-6" edge="1">
          <mxGeometry relative="1" as="geometry">
            <mxPoint x="1246.5" y="267" as="targetPoint" />
          </mxGeometry>
        </mxCell>
        <mxCell id="VWWuzck4U35PcZzD3d7Q-1" style="rounded=0;orthogonalLoop=1;jettySize=auto;html=1;exitX=0.75;exitY=0;exitDx=0;exitDy=0;entryX=0.5;entryY=1;entryDx=0;entryDy=0;endArrow=oval;endFill=0;" parent="1" source="gx2fqg2UMWbFpVax5CwM-6" target="uWJtjKGiHwzr4gWqTYHl-46" edge="1">
          <mxGeometry relative="1" as="geometry" />
        </mxCell>
        <mxCell id="VWWuzck4U35PcZzD3d7Q-2" style="edgeStyle=none;rounded=0;orthogonalLoop=1;jettySize=auto;html=1;exitX=0.25;exitY=0;exitDx=0;exitDy=0;entryX=0.5;entryY=1;entryDx=0;entryDy=0;endArrow=oval;endFill=0;" parent="1" source="gx2fqg2UMWbFpVax5CwM-6" target="uWJtjKGiHwzr4gWqTYHl-44" edge="1">
          <mxGeometry relative="1" as="geometry" />
        </mxCell>
        <mxCell id="VWWuzck4U35PcZzD3d7Q-3" style="edgeStyle=none;rounded=0;orthogonalLoop=1;jettySize=auto;html=1;exitX=0;exitY=0;exitDx=0;exitDy=0;entryX=0.5;entryY=1;entryDx=0;entryDy=0;endArrow=oval;endFill=0;" parent="1" source="gx2fqg2UMWbFpVax5CwM-6" target="uWJtjKGiHwzr4gWqTYHl-40" edge="1">
          <mxGeometry relative="1" as="geometry" />
        </mxCell>
        <mxCell id="VWWuzck4U35PcZzD3d7Q-6" style="edgeStyle=none;rounded=0;orthogonalLoop=1;jettySize=auto;html=1;exitX=0;exitY=0.5;exitDx=0;exitDy=0;entryX=0.975;entryY=0.503;entryDx=0;entryDy=0;entryPerimeter=0;fontSize=11;endArrow=none;endFill=0;" parent="1" source="gx2fqg2UMWbFpVax5CwM-6" target="VWWuzck4U35PcZzD3d7Q-5" edge="1">
          <mxGeometry relative="1" as="geometry" />
        </mxCell>
        <mxCell id="VWWuzck4U35PcZzD3d7Q-8" style="edgeStyle=none;rounded=0;orthogonalLoop=1;jettySize=auto;html=1;exitX=0;exitY=1;exitDx=0;exitDy=0;entryX=0.5;entryY=0;entryDx=0;entryDy=0;fontSize=11;endArrow=oval;endFill=0;" parent="1" source="gx2fqg2UMWbFpVax5CwM-6" target="uWJtjKGiHwzr4gWqTYHl-48" edge="1">
          <mxGeometry relative="1" as="geometry" />
        </mxCell>
        <mxCell id="gx2fqg2UMWbFpVax5CwM-6" value="&lt;b&gt;DIPENDENTE&lt;/b&gt;" style="whiteSpace=wrap;html=1;align=center;" parent="1" vertex="1">
          <mxGeometry x="1127" y="217" width="100" height="40" as="geometry" />
        </mxCell>
        <mxCell id="uWJtjKGiHwzr4gWqTYHl-77" style="edgeStyle=none;rounded=0;orthogonalLoop=1;jettySize=auto;html=1;exitX=0.75;exitY=1;exitDx=0;exitDy=0;fontSize=9;endArrow=oval;endFill=0;entryX=0;entryY=0;entryDx=0;entryDy=0;" parent="1" source="gx2fqg2UMWbFpVax5CwM-9" target="uWJtjKGiHwzr4gWqTYHl-78" edge="1">
          <mxGeometry relative="1" as="geometry">
            <mxPoint x="1216.5" y="497" as="targetPoint" />
          </mxGeometry>
        </mxCell>
        <mxCell id="uWJtjKGiHwzr4gWqTYHl-79" style="edgeStyle=none;rounded=0;orthogonalLoop=1;jettySize=auto;html=1;exitX=0;exitY=0;exitDx=0;exitDy=0;fontSize=9;endArrow=oval;endFill=0;" parent="1" source="gx2fqg2UMWbFpVax5CwM-9" target="uWJtjKGiHwzr4gWqTYHl-80" edge="1">
          <mxGeometry relative="1" as="geometry">
            <mxPoint x="1266.5" y="417.0000000000001" as="targetPoint" />
          </mxGeometry>
        </mxCell>
        <mxCell id="uWJtjKGiHwzr4gWqTYHl-81" style="edgeStyle=none;rounded=0;orthogonalLoop=1;jettySize=auto;html=1;exitX=1;exitY=0;exitDx=0;exitDy=0;fontSize=9;endArrow=oval;endFill=0;entryX=0;entryY=1;entryDx=0;entryDy=0;" parent="1" source="gx2fqg2UMWbFpVax5CwM-9" target="uWJtjKGiHwzr4gWqTYHl-82" edge="1">
          <mxGeometry relative="1" as="geometry">
            <mxPoint x="1246.5" y="446.94444444444446" as="targetPoint" />
          </mxGeometry>
        </mxCell>
        <mxCell id="uWJtjKGiHwzr4gWqTYHl-83" style="edgeStyle=none;rounded=0;orthogonalLoop=1;jettySize=auto;html=1;exitX=1;exitY=1;exitDx=0;exitDy=0;fontSize=9;endArrow=oval;endFill=0;" parent="1" source="gx2fqg2UMWbFpVax5CwM-9" target="uWJtjKGiHwzr4gWqTYHl-84" edge="1">
          <mxGeometry relative="1" as="geometry">
            <mxPoint x="1246.5" y="477.0000000000001" as="targetPoint" />
          </mxGeometry>
        </mxCell>
        <mxCell id="izS-Pc84o4L70vQIA0t2-1" style="rounded=0;orthogonalLoop=1;jettySize=auto;html=1;exitX=0;exitY=1;exitDx=0;exitDy=0;endArrow=oval;endFill=0;entryX=1;entryY=0;entryDx=0;entryDy=0;" parent="1" source="gx2fqg2UMWbFpVax5CwM-9" target="izS-Pc84o4L70vQIA0t2-4" edge="1">
          <mxGeometry relative="1" as="geometry">
            <mxPoint x="1076.5" y="432" as="targetPoint" />
          </mxGeometry>
        </mxCell>
        <mxCell id="gx2fqg2UMWbFpVax5CwM-9" value="&lt;b&gt;INTERVENTO&lt;/b&gt;" style="whiteSpace=wrap;html=1;align=center;" parent="1" vertex="1">
          <mxGeometry x="1127" y="427" width="100" height="40" as="geometry" />
        </mxCell>
        <mxCell id="jzE8oIi-crpwVp-MOxEN-13" style="edgeStyle=none;rounded=0;orthogonalLoop=1;jettySize=auto;html=1;exitX=0.25;exitY=0;exitDx=0;exitDy=0;fontSize=9;fontColor=#000000;endArrow=oval;endFill=0;entryX=0.5;entryY=1;entryDx=0;entryDy=0;" parent="1" source="gx2fqg2UMWbFpVax5CwM-10" target="jzE8oIi-crpwVp-MOxEN-31" edge="1">
          <mxGeometry relative="1" as="geometry">
            <mxPoint x="1533.7576470588237" y="697" as="targetPoint" />
          </mxGeometry>
        </mxCell>
        <mxCell id="jzE8oIi-crpwVp-MOxEN-14" style="edgeStyle=none;rounded=0;orthogonalLoop=1;jettySize=auto;html=1;exitX=0.5;exitY=0;exitDx=0;exitDy=0;fontSize=9;fontColor=#000000;endArrow=oval;endFill=0;entryX=0.5;entryY=1;entryDx=0;entryDy=0;" parent="1" source="gx2fqg2UMWbFpVax5CwM-10" target="jzE8oIi-crpwVp-MOxEN-32" edge="1">
          <mxGeometry relative="1" as="geometry">
            <mxPoint x="1600.72" y="697" as="targetPoint" />
          </mxGeometry>
        </mxCell>
        <mxCell id="jzE8oIi-crpwVp-MOxEN-15" style="edgeStyle=none;rounded=0;orthogonalLoop=1;jettySize=auto;html=1;exitX=0.75;exitY=0;exitDx=0;exitDy=0;fontSize=9;fontColor=#000000;endArrow=oval;endFill=0;entryX=0.5;entryY=1;entryDx=0;entryDy=0;" parent="1" source="gx2fqg2UMWbFpVax5CwM-10" target="jzE8oIi-crpwVp-MOxEN-33" edge="1">
          <mxGeometry relative="1" as="geometry">
            <mxPoint x="1670.72" y="707" as="targetPoint" />
          </mxGeometry>
        </mxCell>
        <mxCell id="VWWuzck4U35PcZzD3d7Q-81" style="edgeStyle=none;rounded=0;orthogonalLoop=1;jettySize=auto;html=1;exitX=0.5;exitY=1;exitDx=0;exitDy=0;entryX=0.5;entryY=0;entryDx=0;entryDy=0;fontSize=11;endArrow=oval;endFill=1;" parent="1" source="gx2fqg2UMWbFpVax5CwM-10" target="jzE8oIi-crpwVp-MOxEN-41" edge="1">
          <mxGeometry relative="1" as="geometry" />
        </mxCell>
        <mxCell id="VWWuzck4U35PcZzD3d7Q-82" style="edgeStyle=none;rounded=0;orthogonalLoop=1;jettySize=auto;html=1;exitX=0.25;exitY=1;exitDx=0;exitDy=0;entryX=0.5;entryY=0;entryDx=0;entryDy=0;fontSize=11;endArrow=oval;endFill=0;" parent="1" source="gx2fqg2UMWbFpVax5CwM-10" target="jzE8oIi-crpwVp-MOxEN-40" edge="1">
          <mxGeometry relative="1" as="geometry">
            <mxPoint x="1562.72" y="532" as="sourcePoint" />
          </mxGeometry>
        </mxCell>
        <mxCell id="VWWuzck4U35PcZzD3d7Q-83" style="edgeStyle=none;rounded=0;orthogonalLoop=1;jettySize=auto;html=1;exitX=0;exitY=1;exitDx=0;exitDy=0;entryX=0.75;entryY=0;entryDx=0;entryDy=0;fontSize=11;endArrow=oval;endFill=0;" parent="1" source="gx2fqg2UMWbFpVax5CwM-10" target="jzE8oIi-crpwVp-MOxEN-39" edge="1">
          <mxGeometry relative="1" as="geometry">
            <mxPoint x="1537.72" y="532" as="sourcePoint" />
          </mxGeometry>
        </mxCell>
        <mxCell id="gx2fqg2UMWbFpVax5CwM-10" value="&lt;b&gt;CORRIERE&lt;/b&gt;" style="whiteSpace=wrap;html=1;align=center;fontColor=#000000;" parent="1" vertex="1">
          <mxGeometry x="1537.72" y="727" width="100" height="40" as="geometry" />
        </mxCell>
        <mxCell id="uWJtjKGiHwzr4gWqTYHl-4" style="edgeStyle=orthogonalEdgeStyle;rounded=0;orthogonalLoop=1;jettySize=auto;html=1;exitX=1;exitY=0.5;exitDx=0;exitDy=0;endArrow=none;endFill=0;" parent="1" source="gx2fqg2UMWbFpVax5CwM-11" target="gx2fqg2UMWbFpVax5CwM-2" edge="1">
          <mxGeometry relative="1" as="geometry" />
        </mxCell>
        <mxCell id="gx2fqg2UMWbFpVax5CwM-11" value="&lt;font style=&quot;font-size: 11px&quot;&gt;ACQUISTO&lt;/font&gt;" style="shape=rhombus;perimeter=rhombusPerimeter;whiteSpace=wrap;html=1;align=center;" parent="1" vertex="1">
          <mxGeometry x="1063.25" y="717" width="120" height="60" as="geometry" />
        </mxCell>
        <mxCell id="C01RRlH5eo6Ali7Qf63X-6" style="edgeStyle=orthogonalEdgeStyle;rounded=0;orthogonalLoop=1;jettySize=auto;html=1;exitX=0.5;exitY=0;exitDx=0;exitDy=0;entryX=0.25;entryY=1;entryDx=0;entryDy=0;endArrow=none;endFill=0;" parent="1" source="gx2fqg2UMWbFpVax5CwM-14" target="gx2fqg2UMWbFpVax5CwM-2" edge="1">
          <mxGeometry relative="1" as="geometry" />
        </mxCell>
        <mxCell id="gx2fqg2UMWbFpVax5CwM-14" value="&lt;font style=&quot;font-size: 9px&quot;&gt;APPARTENENZA&lt;br&gt;BASE&lt;br&gt;&lt;/font&gt;" style="shape=rhombus;perimeter=rhombusPerimeter;whiteSpace=wrap;html=1;align=center;" parent="1" vertex="1">
          <mxGeometry x="1146.53" y="867" width="120" height="60" as="geometry" />
        </mxCell>
        <mxCell id="uWJtjKGiHwzr4gWqTYHl-30" style="edgeStyle=orthogonalEdgeStyle;rounded=0;orthogonalLoop=1;jettySize=auto;html=1;exitX=0.5;exitY=1;exitDx=0;exitDy=0;entryX=0.5;entryY=0;entryDx=0;entryDy=0;endArrow=none;endFill=0;" parent="1" source="gx2fqg2UMWbFpVax5CwM-17" target="gx2fqg2UMWbFpVax5CwM-5" edge="1">
          <mxGeometry relative="1" as="geometry" />
        </mxCell>
        <mxCell id="gx2fqg2UMWbFpVax5CwM-17" value="&lt;font style=&quot;font-size: 11px&quot;&gt;PARTECIPAZIONE&lt;/font&gt;" style="shape=rhombus;perimeter=rhombusPerimeter;whiteSpace=wrap;html=1;align=center;" parent="1" vertex="1">
          <mxGeometry x="1327" y="317" width="120" height="60" as="geometry" />
        </mxCell>
        <mxCell id="uWJtjKGiHwzr4gWqTYHl-7" style="edgeStyle=orthogonalEdgeStyle;rounded=0;orthogonalLoop=1;jettySize=auto;html=1;exitX=1;exitY=0.5;exitDx=0;exitDy=0;entryX=0;entryY=0.5;entryDx=0;entryDy=0;endArrow=none;endFill=0;fontColor=#000000;" parent="1" target="gx2fqg2UMWbFpVax5CwM-10" edge="1">
          <mxGeometry relative="1" as="geometry">
            <mxPoint x="1466.4999999999998" y="747" as="sourcePoint" />
          </mxGeometry>
        </mxCell>
        <mxCell id="gx2fqg2UMWbFpVax5CwM-18" value="&lt;font style=&quot;font-size: 11px&quot;&gt;AFFIDO&lt;/font&gt;" style="shape=rhombus;perimeter=rhombusPerimeter;whiteSpace=wrap;html=1;align=center;" parent="1" vertex="1">
          <mxGeometry x="1375.75" y="717" width="120" height="60" as="geometry" />
        </mxCell>
        <mxCell id="uWJtjKGiHwzr4gWqTYHl-20" style="edgeStyle=orthogonalEdgeStyle;rounded=0;orthogonalLoop=1;jettySize=auto;html=1;exitX=0.5;exitY=0;exitDx=0;exitDy=0;entryX=0.5;entryY=1;entryDx=0;entryDy=0;endArrow=none;endFill=0;" parent="1" source="FtTrVJw0tq06EMOVsZJ_-155" target="gx2fqg2UMWbFpVax5CwM-9" edge="1">
          <mxGeometry relative="1" as="geometry" />
        </mxCell>
        <mxCell id="FtTrVJw0tq06EMOVsZJ_-155" value="&lt;font style=&quot;font-size: 11px&quot;&gt;ESECUZIONE&lt;/font&gt;" style="shape=rhombus;perimeter=rhombusPerimeter;whiteSpace=wrap;html=1;align=center;" parent="1" vertex="1">
          <mxGeometry x="1117" y="527" width="120" height="60" as="geometry" />
        </mxCell>
        <mxCell id="uWJtjKGiHwzr4gWqTYHl-25" style="edgeStyle=orthogonalEdgeStyle;rounded=0;orthogonalLoop=1;jettySize=auto;html=1;exitX=0.5;exitY=1;exitDx=0;exitDy=0;entryX=0.5;entryY=0;entryDx=0;entryDy=0;endArrow=none;endFill=0;" parent="1" source="FtTrVJw0tq06EMOVsZJ_-156" target="gx2fqg2UMWbFpVax5CwM-9" edge="1">
          <mxGeometry relative="1" as="geometry" />
        </mxCell>
        <mxCell id="uWJtjKGiHwzr4gWqTYHl-73" style="edgeStyle=none;rounded=0;orthogonalLoop=1;jettySize=auto;html=1;exitX=0;exitY=1;exitDx=0;exitDy=0;fontSize=9;endArrow=oval;endFill=0;" parent="1" source="FtTrVJw0tq06EMOVsZJ_-156" target="uWJtjKGiHwzr4gWqTYHl-74" edge="1">
          <mxGeometry relative="1" as="geometry">
            <mxPoint x="1216.5" y="307" as="targetPoint" />
          </mxGeometry>
        </mxCell>
        <mxCell id="uWJtjKGiHwzr4gWqTYHl-75" style="edgeStyle=none;rounded=0;orthogonalLoop=1;jettySize=auto;html=1;exitX=0;exitY=0;exitDx=0;exitDy=0;fontSize=9;endArrow=oval;endFill=0;" parent="1" source="FtTrVJw0tq06EMOVsZJ_-156" target="uWJtjKGiHwzr4gWqTYHl-76" edge="1">
          <mxGeometry relative="1" as="geometry">
            <mxPoint x="1126.5" y="387" as="targetPoint" />
          </mxGeometry>
        </mxCell>
        <mxCell id="VWWuzck4U35PcZzD3d7Q-7" style="edgeStyle=none;rounded=0;orthogonalLoop=1;jettySize=auto;html=1;exitX=1;exitY=1;exitDx=0;exitDy=0;entryX=0;entryY=0;entryDx=0;entryDy=0;fontSize=11;endArrow=oval;endFill=0;" parent="1" source="FtTrVJw0tq06EMOVsZJ_-156" target="uWJtjKGiHwzr4gWqTYHl-72" edge="1">
          <mxGeometry relative="1" as="geometry" />
        </mxCell>
        <mxCell id="FtTrVJw0tq06EMOVsZJ_-156" value="&lt;font style=&quot;font-size: 11px&quot;&gt;COINVOLGIMENTO&lt;/font&gt;" style="shape=rhombus;perimeter=rhombusPerimeter;whiteSpace=wrap;html=1;align=center;" parent="1" vertex="1">
          <mxGeometry x="1117" y="317" width="120" height="60" as="geometry" />
        </mxCell>
        <mxCell id="uWJtjKGiHwzr4gWqTYHl-21" style="edgeStyle=orthogonalEdgeStyle;rounded=0;orthogonalLoop=1;jettySize=auto;html=1;exitX=0.5;exitY=0;exitDx=0;exitDy=0;entryX=0.5;entryY=1;entryDx=0;entryDy=0;endArrow=none;endFill=0;" parent="1" source="FtTrVJw0tq06EMOVsZJ_-159" target="gx2fqg2UMWbFpVax5CwM-5" edge="1">
          <mxGeometry relative="1" as="geometry" />
        </mxCell>
        <mxCell id="FtTrVJw0tq06EMOVsZJ_-159" value="&lt;font style=&quot;font-size: 11px&quot;&gt;REALIZZAZIONE&lt;/font&gt;" style="shape=rhombus;perimeter=rhombusPerimeter;whiteSpace=wrap;html=1;align=center;" parent="1" vertex="1">
          <mxGeometry x="1327.5" y="527" width="120" height="60" as="geometry" />
        </mxCell>
        <mxCell id="L8EaPlabEkE5flBV4axa-6" style="edgeStyle=orthogonalEdgeStyle;rounded=0;orthogonalLoop=1;jettySize=auto;html=1;exitX=0.5;exitY=1;exitDx=0;exitDy=0;endArrow=none;endFill=0;entryX=0;entryY=0.5;entryDx=0;entryDy=0;" parent="1" source="FtTrVJw0tq06EMOVsZJ_-160" target="L8EaPlabEkE5flBV4axa-4" edge="1">
          <mxGeometry relative="1" as="geometry">
            <mxPoint x="1175.5357142857142" y="1177" as="targetPoint" />
          </mxGeometry>
        </mxCell>
        <mxCell id="VWWuzck4U35PcZzD3d7Q-29" style="edgeStyle=none;rounded=0;orthogonalLoop=1;jettySize=auto;html=1;exitX=0.25;exitY=0;exitDx=0;exitDy=0;entryX=1;entryY=1;entryDx=0;entryDy=0;fontSize=11;endArrow=oval;endFill=0;" parent="1" source="FtTrVJw0tq06EMOVsZJ_-160" target="uWJtjKGiHwzr4gWqTYHl-102" edge="1">
          <mxGeometry relative="1" as="geometry">
            <mxPoint x="996.97" y="942" as="targetPoint" />
          </mxGeometry>
        </mxCell>
        <mxCell id="VWWuzck4U35PcZzD3d7Q-30" style="edgeStyle=none;rounded=0;orthogonalLoop=1;jettySize=auto;html=1;exitX=0.25;exitY=1;exitDx=0;exitDy=0;entryX=1;entryY=0;entryDx=0;entryDy=0;fontSize=11;endArrow=oval;endFill=0;" parent="1" source="FtTrVJw0tq06EMOVsZJ_-160" target="uWJtjKGiHwzr4gWqTYHl-112" edge="1">
          <mxGeometry relative="1" as="geometry" />
        </mxCell>
        <mxCell id="VWWuzck4U35PcZzD3d7Q-31" style="edgeStyle=none;rounded=0;orthogonalLoop=1;jettySize=auto;html=1;exitX=0;exitY=1;exitDx=0;exitDy=0;entryX=1;entryY=0.5;entryDx=0;entryDy=0;fontSize=11;endArrow=oval;endFill=0;" parent="1" source="FtTrVJw0tq06EMOVsZJ_-160" target="uWJtjKGiHwzr4gWqTYHl-110" edge="1">
          <mxGeometry relative="1" as="geometry" />
        </mxCell>
        <mxCell id="VWWuzck4U35PcZzD3d7Q-32" style="edgeStyle=none;rounded=0;orthogonalLoop=1;jettySize=auto;html=1;exitX=0;exitY=0.5;exitDx=0;exitDy=0;entryX=1;entryY=0.5;entryDx=0;entryDy=0;fontSize=11;endArrow=oval;endFill=0;" parent="1" source="FtTrVJw0tq06EMOVsZJ_-160" target="uWJtjKGiHwzr4gWqTYHl-109" edge="1">
          <mxGeometry relative="1" as="geometry" />
        </mxCell>
        <mxCell id="VWWuzck4U35PcZzD3d7Q-34" style="edgeStyle=none;rounded=0;orthogonalLoop=1;jettySize=auto;html=1;exitX=0.5;exitY=0;exitDx=0;exitDy=0;entryX=0.5;entryY=1;entryDx=0;entryDy=0;fontSize=11;endArrow=oval;endFill=1;" parent="1" source="FtTrVJw0tq06EMOVsZJ_-160" target="uWJtjKGiHwzr4gWqTYHl-100" edge="1">
          <mxGeometry relative="1" as="geometry">
            <mxPoint x="1022.97" y="847" as="targetPoint" />
          </mxGeometry>
        </mxCell>
        <mxCell id="C01RRlH5eo6Ali7Qf63X-12" style="edgeStyle=orthogonalEdgeStyle;rounded=0;orthogonalLoop=1;jettySize=auto;html=1;endArrow=none;endFill=0;" parent="1" source="FtTrVJw0tq06EMOVsZJ_-160" edge="1">
          <mxGeometry relative="1" as="geometry">
            <mxPoint x="1146.5" y="897" as="targetPoint" />
          </mxGeometry>
        </mxCell>
        <mxCell id="C01RRlH5eo6Ali7Qf63X-14" style="edgeStyle=orthogonalEdgeStyle;rounded=0;orthogonalLoop=1;jettySize=auto;html=1;exitX=0;exitY=0;exitDx=0;exitDy=0;entryX=1;entryY=0.5;entryDx=0;entryDy=0;endArrow=oval;endFill=0;" parent="1" source="FtTrVJw0tq06EMOVsZJ_-160" target="uWJtjKGiHwzr4gWqTYHl-108" edge="1">
          <mxGeometry relative="1" as="geometry" />
        </mxCell>
        <mxCell id="FtTrVJw0tq06EMOVsZJ_-160" value="&lt;b&gt;BASE&lt;/b&gt;" style="whiteSpace=wrap;html=1;align=center;" parent="1" vertex="1">
          <mxGeometry x="1004.25" y="877" width="100" height="40" as="geometry" />
        </mxCell>
        <mxCell id="uWJtjKGiHwzr4gWqTYHl-113" style="edgeStyle=none;rounded=0;orthogonalLoop=1;jettySize=auto;html=1;exitX=1;exitY=0.5;exitDx=0;exitDy=0;fontSize=9;endArrow=oval;endFill=0;entryX=0;entryY=0.5;entryDx=0;entryDy=0;" parent="1" source="FtTrVJw0tq06EMOVsZJ_-161" target="uWJtjKGiHwzr4gWqTYHl-114" edge="1">
          <mxGeometry relative="1" as="geometry">
            <mxPoint x="1563.94" y="867" as="targetPoint" />
          </mxGeometry>
        </mxCell>
        <mxCell id="VWWuzck4U35PcZzD3d7Q-28" style="edgeStyle=none;rounded=0;orthogonalLoop=1;jettySize=auto;html=1;exitX=0;exitY=0.5;exitDx=0;exitDy=0;entryX=1;entryY=0.5;entryDx=0;entryDy=0;fontSize=11;endArrow=none;endFill=0;" parent="1" source="FtTrVJw0tq06EMOVsZJ_-161" target="VWWuzck4U35PcZzD3d7Q-24" edge="1">
          <mxGeometry relative="1" as="geometry" />
        </mxCell>
        <mxCell id="VWWuzck4U35PcZzD3d7Q-35" style="edgeStyle=none;rounded=0;orthogonalLoop=1;jettySize=auto;html=1;exitX=1;exitY=0;exitDx=0;exitDy=0;entryX=0;entryY=1;entryDx=0;entryDy=0;fontSize=11;endArrow=oval;endFill=0;" parent="1" source="FtTrVJw0tq06EMOVsZJ_-161" target="VWWuzck4U35PcZzD3d7Q-23" edge="1">
          <mxGeometry relative="1" as="geometry" />
        </mxCell>
        <mxCell id="VWWuzck4U35PcZzD3d7Q-36" style="edgeStyle=none;rounded=0;orthogonalLoop=1;jettySize=auto;html=1;exitX=0.5;exitY=0;exitDx=0;exitDy=0;entryX=0.5;entryY=1;entryDx=0;entryDy=0;fontSize=11;endArrow=oval;endFill=1;" parent="1" source="FtTrVJw0tq06EMOVsZJ_-161" target="VWWuzck4U35PcZzD3d7Q-22" edge="1">
          <mxGeometry relative="1" as="geometry" />
        </mxCell>
        <mxCell id="FtTrVJw0tq06EMOVsZJ_-161" value="&lt;b&gt;ACCESSORIA&lt;/b&gt;" style="whiteSpace=wrap;html=1;align=center;" parent="1" vertex="1">
          <mxGeometry x="1443.94" y="877" width="100" height="40" as="geometry" />
        </mxCell>
        <mxCell id="uWJtjKGiHwzr4gWqTYHl-38" value="Problematiche" style="text;html=1;strokeColor=none;fillColor=none;align=center;verticalAlign=middle;whiteSpace=wrap;rounded=0;fontSize=9;" parent="1" vertex="1">
          <mxGeometry x="1334.75" y="687" width="51" height="20" as="geometry" />
        </mxCell>
        <mxCell id="uWJtjKGiHwzr4gWqTYHl-40" value="Disponibilità" style="text;html=1;strokeColor=none;fillColor=none;align=center;verticalAlign=middle;whiteSpace=wrap;rounded=0;fontSize=9;" parent="1" vertex="1">
          <mxGeometry x="1059.5" y="167" width="60" height="30" as="geometry" />
        </mxCell>
        <mxCell id="uWJtjKGiHwzr4gWqTYHl-44" value="OreManutenzione" style="text;html=1;strokeColor=none;fillColor=none;align=center;verticalAlign=middle;whiteSpace=wrap;rounded=0;fontSize=9;" parent="1" vertex="1">
          <mxGeometry x="1095.5" y="152" width="89" height="30" as="geometry" />
        </mxCell>
        <mxCell id="uWJtjKGiHwzr4gWqTYHl-46" value="AlboProfessionale" style="text;html=1;strokeColor=none;fillColor=none;align=center;verticalAlign=middle;whiteSpace=wrap;rounded=0;fontSize=9;" parent="1" vertex="1">
          <mxGeometry x="1180.2755555555555" y="162" width="60" height="30" as="geometry" />
        </mxCell>
        <mxCell id="uWJtjKGiHwzr4gWqTYHl-48" value="TipoContratto" style="text;html=1;strokeColor=none;fillColor=none;align=center;verticalAlign=middle;whiteSpace=wrap;rounded=0;fontSize=9;" parent="1" vertex="1">
          <mxGeometry x="1072.75" y="269.5" width="54.25" height="20" as="geometry" />
        </mxCell>
        <mxCell id="uWJtjKGiHwzr4gWqTYHl-61" value="Nome" style="text;html=1;strokeColor=none;fillColor=none;align=center;verticalAlign=middle;whiteSpace=wrap;rounded=0;fontSize=9;" parent="1" vertex="1">
          <mxGeometry x="829.52" y="177" width="36.5" height="20" as="geometry" />
        </mxCell>
        <mxCell id="uWJtjKGiHwzr4gWqTYHl-62" value="Cognome" style="text;html=1;strokeColor=none;fillColor=none;align=center;verticalAlign=middle;whiteSpace=wrap;rounded=0;fontSize=9;" parent="1" vertex="1">
          <mxGeometry x="889.52" y="177" width="45" height="20" as="geometry" />
        </mxCell>
        <mxCell id="uWJtjKGiHwzr4gWqTYHl-63" value="CF" style="text;html=1;strokeColor=none;fillColor=none;align=center;verticalAlign=middle;whiteSpace=wrap;rounded=0;fontSize=9;" parent="1" vertex="1">
          <mxGeometry x="867" y="157" width="23.5" height="20" as="geometry" />
        </mxCell>
        <mxCell id="uWJtjKGiHwzr4gWqTYHl-64" value="Telefono" style="text;html=1;strokeColor=none;fillColor=none;align=center;verticalAlign=middle;whiteSpace=wrap;rounded=0;fontSize=9;rotation=0;" parent="1" vertex="1">
          <mxGeometry x="892.02" y="277" width="40" height="25" as="geometry" />
        </mxCell>
        <mxCell id="uWJtjKGiHwzr4gWqTYHl-65" value="E-mail" style="text;html=1;strokeColor=none;fillColor=none;align=center;verticalAlign=middle;whiteSpace=wrap;rounded=0;fontSize=9;" parent="1" vertex="1">
          <mxGeometry x="827" y="277" width="40" height="20" as="geometry" />
        </mxCell>
        <mxCell id="uWJtjKGiHwzr4gWqTYHl-67" value="Specializzazione" style="text;html=1;strokeColor=none;fillColor=none;align=center;verticalAlign=middle;whiteSpace=wrap;rounded=0;fontSize=9;" parent="1" vertex="1">
          <mxGeometry x="1256.5" y="162" width="60" height="30" as="geometry" />
        </mxCell>
        <mxCell id="uWJtjKGiHwzr4gWqTYHl-68" style="edgeStyle=none;rounded=0;orthogonalLoop=1;jettySize=auto;html=1;exitX=0;exitY=1;exitDx=0;exitDy=0;fontSize=9;endArrow=oval;endFill=0;" parent="1" source="FtTrVJw0tq06EMOVsZJ_-156" target="FtTrVJw0tq06EMOVsZJ_-156" edge="1">
          <mxGeometry relative="1" as="geometry" />
        </mxCell>
        <mxCell id="uWJtjKGiHwzr4gWqTYHl-70" style="edgeStyle=none;rounded=0;orthogonalLoop=1;jettySize=auto;html=1;exitX=0;exitY=0;exitDx=0;exitDy=0;fontSize=9;endArrow=oval;endFill=0;" parent="1" source="FtTrVJw0tq06EMOVsZJ_-156" target="FtTrVJw0tq06EMOVsZJ_-156" edge="1">
          <mxGeometry relative="1" as="geometry" />
        </mxCell>
        <mxCell id="uWJtjKGiHwzr4gWqTYHl-72" value="DataFine" style="text;html=1;strokeColor=none;fillColor=none;align=center;verticalAlign=middle;whiteSpace=wrap;rounded=0;fontSize=9;" parent="1" vertex="1">
          <mxGeometry x="1234.76" y="377" width="40" height="25" as="geometry" />
        </mxCell>
        <mxCell id="uWJtjKGiHwzr4gWqTYHl-74" value="DataInizio" style="text;html=1;strokeColor=none;fillColor=none;align=center;verticalAlign=middle;whiteSpace=wrap;rounded=0;fontSize=9;" parent="1" vertex="1">
          <mxGeometry x="1087.5" y="372" width="40" height="25" as="geometry" />
        </mxCell>
        <mxCell id="uWJtjKGiHwzr4gWqTYHl-76" value="Ore" style="text;html=1;strokeColor=none;fillColor=none;align=center;verticalAlign=middle;whiteSpace=wrap;rounded=0;fontSize=9;" parent="1" vertex="1">
          <mxGeometry x="1107.5" y="304.5" width="20" height="15" as="geometry" />
        </mxCell>
        <mxCell id="uWJtjKGiHwzr4gWqTYHl-78" value="#Progressivo" style="text;html=1;strokeColor=none;fillColor=none;align=center;verticalAlign=middle;whiteSpace=wrap;rounded=0;fontSize=9;" parent="1" vertex="1">
          <mxGeometry x="1224.81" y="502" width="60" height="25" as="geometry" />
        </mxCell>
        <mxCell id="uWJtjKGiHwzr4gWqTYHl-80" value="Stato" style="text;html=1;strokeColor=none;fillColor=none;align=center;verticalAlign=middle;whiteSpace=wrap;rounded=0;fontSize=9;" parent="1" vertex="1">
          <mxGeometry x="1077" y="402" width="40" height="15" as="geometry" />
        </mxCell>
        <mxCell id="uWJtjKGiHwzr4gWqTYHl-82" value="DataArrivo" style="text;html=1;strokeColor=none;fillColor=none;align=center;verticalAlign=middle;whiteSpace=wrap;rounded=0;fontSize=9;" parent="1" vertex="1">
          <mxGeometry x="1244.75" y="402" width="60" height="15" as="geometry" />
        </mxCell>
        <mxCell id="uWJtjKGiHwzr4gWqTYHl-84" value="DataFine" style="text;html=1;strokeColor=none;fillColor=none;align=center;verticalAlign=middle;whiteSpace=wrap;rounded=0;fontSize=9;" parent="1" vertex="1">
          <mxGeometry x="1251.26" y="474.5" width="50" height="15" as="geometry" />
        </mxCell>
        <mxCell id="uWJtjKGiHwzr4gWqTYHl-86" value="Tipo" style="text;html=1;strokeColor=none;fillColor=none;align=center;verticalAlign=middle;whiteSpace=wrap;rounded=0;fontSize=9;" parent="1" vertex="1">
          <mxGeometry x="1447.5" y="392" width="30" height="25" as="geometry" />
        </mxCell>
        <mxCell id="uWJtjKGiHwzr4gWqTYHl-88" value="ID" style="text;html=1;strokeColor=none;fillColor=none;align=center;verticalAlign=middle;whiteSpace=wrap;rounded=0;fontSize=9;" parent="1" vertex="1">
          <mxGeometry x="1466.5" y="436.99" width="21" height="20.03" as="geometry" />
        </mxCell>
        <mxCell id="uWJtjKGiHwzr4gWqTYHl-90" value="Valutazione" style="text;html=1;strokeColor=none;fillColor=none;align=center;verticalAlign=middle;whiteSpace=wrap;rounded=0;fontSize=9;" parent="1" vertex="1">
          <mxGeometry x="1175.25" y="684.5" width="40" height="25" as="geometry" />
        </mxCell>
        <mxCell id="uWJtjKGiHwzr4gWqTYHl-92" value="Seriale" style="text;html=1;strokeColor=none;fillColor=none;align=center;verticalAlign=middle;whiteSpace=wrap;rounded=0;fontSize=9;" parent="1" vertex="1">
          <mxGeometry x="1160.25" y="762" width="50" height="15" as="geometry" />
        </mxCell>
        <mxCell id="uWJtjKGiHwzr4gWqTYHl-94" value="Prezzo" style="text;html=1;strokeColor=none;fillColor=none;align=center;verticalAlign=middle;whiteSpace=wrap;rounded=0;fontSize=9;" parent="1" vertex="1">
          <mxGeometry x="1183.75" y="784.5" width="40" height="15" as="geometry" />
        </mxCell>
        <mxCell id="uWJtjKGiHwzr4gWqTYHl-96" value="#Accessori" style="text;html=1;strokeColor=none;fillColor=none;align=center;verticalAlign=middle;whiteSpace=wrap;rounded=0;fontSize=9;" parent="1" vertex="1">
          <mxGeometry x="1344.25" y="784.5" width="30" height="15" as="geometry" />
        </mxCell>
        <mxCell id="uWJtjKGiHwzr4gWqTYHl-98" value="Descrizione" style="text;html=1;strokeColor=none;fillColor=none;align=center;verticalAlign=middle;whiteSpace=wrap;rounded=0;fontSize=9;" parent="1" vertex="1">
          <mxGeometry x="1348.5" y="762" width="62.25" height="15" as="geometry" />
        </mxCell>
        <mxCell id="uWJtjKGiHwzr4gWqTYHl-100" value="NomeCategoria" style="text;html=1;strokeColor=none;fillColor=none;align=center;verticalAlign=middle;whiteSpace=wrap;rounded=0;fontSize=9;" parent="1" vertex="1">
          <mxGeometry x="1021.5" y="827" width="66" height="20" as="geometry" />
        </mxCell>
        <mxCell id="uWJtjKGiHwzr4gWqTYHl-102" value="DestinazioneUso" style="text;html=1;strokeColor=none;fillColor=none;align=center;verticalAlign=middle;whiteSpace=wrap;rounded=0;fontSize=9;" parent="1" vertex="1">
          <mxGeometry x="950.5" y="837" width="60" height="25" as="geometry" />
        </mxCell>
        <mxCell id="uWJtjKGiHwzr4gWqTYHl-108" value="Lunghezza" style="text;html=1;strokeColor=none;fillColor=none;align=center;verticalAlign=middle;whiteSpace=wrap;rounded=0;fontSize=9;" parent="1" vertex="1">
          <mxGeometry x="909.78" y="867" width="62.47" height="20" as="geometry" />
        </mxCell>
        <mxCell id="uWJtjKGiHwzr4gWqTYHl-109" value="Larghezza" style="text;html=1;strokeColor=none;fillColor=none;align=center;verticalAlign=middle;whiteSpace=wrap;rounded=0;fontSize=9;" parent="1" vertex="1">
          <mxGeometry x="911.78" y="887" width="60.47" height="20" as="geometry" />
        </mxCell>
        <mxCell id="uWJtjKGiHwzr4gWqTYHl-110" value="Altezza" style="text;html=1;strokeColor=none;fillColor=none;align=center;verticalAlign=middle;whiteSpace=wrap;rounded=0;fontSize=9;" parent="1" vertex="1">
          <mxGeometry x="931.78" y="909.5" width="40.47" height="15" as="geometry" />
        </mxCell>
        <mxCell id="uWJtjKGiHwzr4gWqTYHl-112" value="Trattamenti" style="text;html=1;strokeColor=none;fillColor=none;align=center;verticalAlign=middle;whiteSpace=wrap;rounded=0;fontSize=9;" parent="1" vertex="1">
          <mxGeometry x="960.5" y="937" width="50" height="15" as="geometry" />
        </mxCell>
        <mxCell id="uWJtjKGiHwzr4gWqTYHl-114" value="Applicabilità multipla" style="text;html=1;strokeColor=none;fillColor=none;align=center;verticalAlign=middle;whiteSpace=wrap;rounded=0;fontSize=9;" parent="1" vertex="1">
          <mxGeometry x="1571" y="884.5" width="65.5" height="25" as="geometry" />
        </mxCell>
        <mxCell id="uWJtjKGiHwzr4gWqTYHl-116" value="Lotto" style="text;html=1;strokeColor=none;fillColor=none;align=center;verticalAlign=middle;whiteSpace=wrap;rounded=0;fontSize=9;" parent="1" vertex="1">
          <mxGeometry x="1266.95" y="682" width="21.11" height="25" as="geometry" />
        </mxCell>
        <mxCell id="jzE8oIi-crpwVp-MOxEN-1" value="(1,N)" style="text;html=1;align=center;verticalAlign=middle;whiteSpace=wrap;rounded=0;fontColor=#FF0000;" parent="1" vertex="1">
          <mxGeometry x="1226.5" y="222" width="40" height="10" as="geometry" />
        </mxCell>
        <mxCell id="jzE8oIi-crpwVp-MOxEN-12" value="&lt;font style=&quot;font-size: 9px&quot;&gt;#Acquisti&lt;/font&gt;" style="text;html=1;strokeColor=none;fillColor=none;align=center;verticalAlign=middle;whiteSpace=wrap;rounded=0;fontColor=#000000;" parent="1" vertex="1">
          <mxGeometry x="938.78" y="684.5" width="43.95" height="25" as="geometry" />
        </mxCell>
        <mxCell id="jzE8oIi-crpwVp-MOxEN-31" value="DataPrimoImpiego" style="text;html=1;strokeColor=none;fillColor=none;align=center;verticalAlign=middle;whiteSpace=wrap;rounded=0;fontSize=9;fontColor=#000000;" parent="1" vertex="1">
          <mxGeometry x="1489.16" y="689.5" width="79" height="20" as="geometry" />
        </mxCell>
        <mxCell id="jzE8oIi-crpwVp-MOxEN-32" value="Società" style="text;html=1;strokeColor=none;fillColor=none;align=center;verticalAlign=middle;whiteSpace=wrap;rounded=0;fontSize=9;fontColor=#000000;" parent="1" vertex="1">
          <mxGeometry x="1572.72" y="674.5" width="30" height="25" as="geometry" />
        </mxCell>
        <mxCell id="jzE8oIi-crpwVp-MOxEN-33" value="Targa" style="text;html=1;strokeColor=none;fillColor=none;align=center;verticalAlign=middle;whiteSpace=wrap;rounded=0;fontSize=9;fontColor=#000000;" parent="1" vertex="1">
          <mxGeometry x="1619.72" y="689.5" width="30" height="25" as="geometry" />
        </mxCell>
        <mxCell id="jzE8oIi-crpwVp-MOxEN-34" value="Nome" style="text;html=1;strokeColor=none;fillColor=none;align=center;verticalAlign=middle;whiteSpace=wrap;rounded=0;fontSize=9;fontColor=#000000;" parent="1" vertex="1">
          <mxGeometry x="880.75" y="782" width="36.5" height="25" as="geometry" />
        </mxCell>
        <mxCell id="jzE8oIi-crpwVp-MOxEN-37" value="Cognome" style="text;html=1;strokeColor=none;fillColor=none;align=center;verticalAlign=middle;whiteSpace=wrap;rounded=0;fontSize=9;fontColor=#000000;" parent="1" vertex="1">
          <mxGeometry x="891.26" y="804.5" width="45" height="20" as="geometry" />
        </mxCell>
        <mxCell id="jzE8oIi-crpwVp-MOxEN-38" value="CF" style="text;html=1;strokeColor=none;fillColor=none;align=center;verticalAlign=middle;whiteSpace=wrap;rounded=0;fontSize=9;fontColor=#000000;" parent="1" vertex="1">
          <mxGeometry x="945.75" y="787" width="30" height="20" as="geometry" />
        </mxCell>
        <mxCell id="jzE8oIi-crpwVp-MOxEN-39" value="Nome" style="text;html=1;strokeColor=none;fillColor=none;align=center;verticalAlign=middle;whiteSpace=wrap;rounded=0;fontSize=9;fontColor=#000000;" parent="1" vertex="1">
          <mxGeometry x="1504.22" y="779.5" width="36.5" height="20" as="geometry" />
        </mxCell>
        <mxCell id="jzE8oIi-crpwVp-MOxEN-40" value="Cognome" style="text;html=1;strokeColor=none;fillColor=none;align=center;verticalAlign=middle;whiteSpace=wrap;rounded=0;fontSize=9;fontColor=#000000;" parent="1" vertex="1">
          <mxGeometry x="1526.94" y="797" width="50" height="20" as="geometry" />
        </mxCell>
        <mxCell id="jzE8oIi-crpwVp-MOxEN-41" value="CF" style="text;html=1;strokeColor=none;fillColor=none;align=center;verticalAlign=middle;whiteSpace=wrap;rounded=0;fontSize=9;fontColor=#000000;" parent="1" vertex="1">
          <mxGeometry x="1572.72" y="787" width="30" height="20" as="geometry" />
        </mxCell>
        <mxCell id="jzE8oIi-crpwVp-MOxEN-42" value="Telefono" style="text;html=1;strokeColor=none;fillColor=none;align=center;verticalAlign=middle;whiteSpace=wrap;rounded=0;fontSize=9;fontColor=#000000;" parent="1" vertex="1">
          <mxGeometry x="1000.45" y="782" width="44.25" height="25" as="geometry" />
        </mxCell>
        <mxCell id="jzE8oIi-crpwVp-MOxEN-43" value="E-mail" style="text;html=1;strokeColor=none;fillColor=none;align=center;verticalAlign=middle;whiteSpace=wrap;rounded=0;fontSize=9;fontColor=#000000;" parent="1" vertex="1">
          <mxGeometry x="981.5" y="802" width="40" height="25" as="geometry" />
        </mxCell>
        <mxCell id="jzE8oIi-crpwVp-MOxEN-52" value="(1,N)" style="text;html=1;align=center;verticalAlign=middle;whiteSpace=wrap;rounded=0;fontColor=#FF0000;" parent="1" vertex="1">
          <mxGeometry x="1386.5" y="412" width="40" height="10" as="geometry" />
        </mxCell>
        <mxCell id="jzE8oIi-crpwVp-MOxEN-53" value="(1,N)" style="text;html=1;align=center;verticalAlign=middle;whiteSpace=wrap;rounded=0;fontColor=#FF0000;" parent="1" vertex="1">
          <mxGeometry x="1500.72" y="732" width="40" height="10" as="geometry" />
        </mxCell>
        <mxCell id="jzE8oIi-crpwVp-MOxEN-54" value="(1,N)" style="text;html=1;align=center;verticalAlign=middle;whiteSpace=wrap;rounded=0;fontColor=#FF0000;" parent="1" vertex="1">
          <mxGeometry x="1107.5" y="877" width="40" height="20" as="geometry" />
        </mxCell>
        <mxCell id="jzE8oIi-crpwVp-MOxEN-56" value="(1,N)" style="text;html=1;align=center;verticalAlign=middle;whiteSpace=wrap;rounded=0;fontColor=#FF0000;" parent="1" vertex="1">
          <mxGeometry x="1010.75" y="732" width="40" height="10" as="geometry" />
        </mxCell>
        <mxCell id="jzE8oIi-crpwVp-MOxEN-58" value="(0,N)" style="text;html=1;align=center;verticalAlign=middle;whiteSpace=wrap;rounded=0;fontColor=#FF0000;" parent="1" vertex="1">
          <mxGeometry x="1216.5" y="657" width="40" height="10" as="geometry" />
        </mxCell>
        <mxCell id="jzE8oIi-crpwVp-MOxEN-59" value="(1,N)" style="text;html=1;align=center;verticalAlign=middle;whiteSpace=wrap;rounded=0;fontColor=#FF0000;" parent="1" vertex="1">
          <mxGeometry x="1140.5" y="407" width="40" height="20" as="geometry" />
        </mxCell>
        <mxCell id="jzE8oIi-crpwVp-MOxEN-60" value="(1,N)" style="text;html=1;align=center;verticalAlign=middle;whiteSpace=wrap;rounded=0;fontColor=#FF0000;" parent="1" vertex="1">
          <mxGeometry x="1175.5" y="259.5" width="40" height="10" as="geometry" />
        </mxCell>
        <mxCell id="9aJF9EeRNq_PgOef32kS-4" value="(1,1)" style="text;html=1;strokeColor=none;fillColor=none;align=center;verticalAlign=middle;whiteSpace=wrap;rounded=0;fontColor=#FF0000;" parent="1" vertex="1">
          <mxGeometry x="1194" y="727" width="33" height="20" as="geometry" />
        </mxCell>
        <mxCell id="9aJF9EeRNq_PgOef32kS-5" value="(1,1)" style="text;html=1;strokeColor=none;fillColor=none;align=center;verticalAlign=middle;whiteSpace=wrap;rounded=0;fontColor=#FF0000;" parent="1" vertex="1">
          <mxGeometry x="1298.5" y="652" width="38" height="20" as="geometry" />
        </mxCell>
        <mxCell id="9aJF9EeRNq_PgOef32kS-6" value="(0,1)" style="text;html=1;strokeColor=none;fillColor=none;align=center;verticalAlign=middle;whiteSpace=wrap;rounded=0;fontColor=#FF0000;" parent="1" vertex="1">
          <mxGeometry x="1218.78" y="799.5" width="33" height="20" as="geometry" />
        </mxCell>
        <mxCell id="9aJF9EeRNq_PgOef32kS-7" value="(1,1)" style="text;html=1;strokeColor=none;fillColor=none;align=center;verticalAlign=middle;whiteSpace=wrap;rounded=0;fontColor=#FF0000;" parent="1" vertex="1">
          <mxGeometry x="1388" y="467" width="30.44" height="20" as="geometry" />
        </mxCell>
        <mxCell id="9aJF9EeRNq_PgOef32kS-8" value="(1,1)" style="text;html=1;strokeColor=none;fillColor=none;align=center;verticalAlign=middle;whiteSpace=wrap;rounded=0;fontColor=#FF0000;" parent="1" vertex="1">
          <mxGeometry x="1145.5" y="467" width="30" height="20" as="geometry" />
        </mxCell>
        <mxCell id="9aJF9EeRNq_PgOef32kS-9" value="(1,1)" style="text;html=1;strokeColor=none;fillColor=none;align=center;verticalAlign=middle;whiteSpace=wrap;rounded=0;fontColor=#FF0000;" parent="1" vertex="1">
          <mxGeometry x="1326.25" y="724.5" width="38" height="25" as="geometry" />
        </mxCell>
        <mxCell id="9aJF9EeRNq_PgOef32kS-11" value="M" style="text;html=1;strokeColor=none;fillColor=none;align=center;verticalAlign=middle;whiteSpace=wrap;rounded=0;fontColor=#FF0000;" parent="1" vertex="1">
          <mxGeometry x="1145.5" y="304.5" width="10" height="10" as="geometry" />
        </mxCell>
        <mxCell id="9aJF9EeRNq_PgOef32kS-12" value="N" style="text;html=1;strokeColor=none;fillColor=none;align=center;verticalAlign=middle;whiteSpace=wrap;rounded=0;fontColor=#FF0000;" parent="1" vertex="1">
          <mxGeometry x="1202" y="304.5" width="10" height="10" as="geometry" />
        </mxCell>
        <mxCell id="9aJF9EeRNq_PgOef32kS-13" value="M" style="text;html=1;strokeColor=none;fillColor=none;align=center;verticalAlign=middle;whiteSpace=wrap;rounded=0;fontColor=#FF0000;" parent="1" vertex="1">
          <mxGeometry x="1351.94" y="304.5" width="10" height="10" as="geometry" />
        </mxCell>
        <mxCell id="9aJF9EeRNq_PgOef32kS-14" value="N" style="text;html=1;strokeColor=none;fillColor=none;align=center;verticalAlign=middle;whiteSpace=wrap;rounded=0;fontColor=#FF0000;" parent="1" vertex="1">
          <mxGeometry x="1408.44" y="304.5" width="10" height="10" as="geometry" />
        </mxCell>
        <mxCell id="9aJF9EeRNq_PgOef32kS-19" value="1" style="text;html=1;strokeColor=none;fillColor=none;align=center;verticalAlign=middle;whiteSpace=wrap;rounded=0;fontColor=#FF0000;" parent="1" vertex="1">
          <mxGeometry x="994.25" y="202" width="10" height="10" as="geometry" />
        </mxCell>
        <mxCell id="9aJF9EeRNq_PgOef32kS-20" value="1" style="text;html=1;strokeColor=none;fillColor=none;align=center;verticalAlign=middle;whiteSpace=wrap;rounded=0;fontColor=#FF0000;" parent="1" vertex="1">
          <mxGeometry x="1050.75" y="202" width="10" height="10" as="geometry" />
        </mxCell>
        <mxCell id="9aJF9EeRNq_PgOef32kS-21" value="1" style="text;html=1;strokeColor=none;fillColor=none;align=center;verticalAlign=middle;whiteSpace=wrap;rounded=0;fontColor=#FF0000;" parent="1" vertex="1">
          <mxGeometry x="1354.25" y="517" width="10" height="10" as="geometry" />
        </mxCell>
        <mxCell id="9aJF9EeRNq_PgOef32kS-22" value="1" style="text;html=1;strokeColor=none;fillColor=none;align=center;verticalAlign=middle;whiteSpace=wrap;rounded=0;fontColor=#FF0000;" parent="1" vertex="1">
          <mxGeometry x="1410.75" y="517" width="10" height="10" as="geometry" />
        </mxCell>
        <mxCell id="9aJF9EeRNq_PgOef32kS-25" value="1" style="text;html=1;strokeColor=none;fillColor=none;align=center;verticalAlign=middle;whiteSpace=wrap;rounded=0;fontColor=#FF0000;" parent="1" vertex="1">
          <mxGeometry x="1075.25" y="722" width="10" height="10" as="geometry" />
        </mxCell>
        <mxCell id="9aJF9EeRNq_PgOef32kS-26" value="N" style="text;html=1;strokeColor=none;fillColor=none;align=center;verticalAlign=middle;whiteSpace=wrap;rounded=0;fontColor=#FF0000;" parent="1" vertex="1">
          <mxGeometry x="1161.25" y="722" width="10" height="10" as="geometry" />
        </mxCell>
        <mxCell id="9aJF9EeRNq_PgOef32kS-27" value="N" style="text;html=1;strokeColor=none;fillColor=none;align=center;verticalAlign=middle;whiteSpace=wrap;rounded=0;fontColor=#FF0000;" parent="1" vertex="1">
          <mxGeometry x="1383.75" y="722" width="10" height="10" as="geometry" />
        </mxCell>
        <mxCell id="9aJF9EeRNq_PgOef32kS-28" value="1" style="text;html=1;strokeColor=none;fillColor=none;align=center;verticalAlign=middle;whiteSpace=wrap;rounded=0;fontColor=#FF0000;" parent="1" vertex="1">
          <mxGeometry x="1480.25" y="722" width="10" height="10" as="geometry" />
        </mxCell>
        <mxCell id="cwDBM6tycQYc7HeiNDPo-2" value="" style="endArrow=oval;html=1;rounded=0;fontSize=11;endFill=1;fontColor=#FF0000;" parent="1" edge="1">
          <mxGeometry width="50" height="50" relative="1" as="geometry">
            <mxPoint x="1166" y="487" as="sourcePoint" />
            <mxPoint x="1236" y="487" as="targetPoint" />
          </mxGeometry>
        </mxCell>
        <mxCell id="rHscnQnr_pqCsqy7i4I7-6" value="Matricola" style="text;html=1;strokeColor=none;fillColor=none;align=center;verticalAlign=middle;whiteSpace=wrap;rounded=0;fontSize=9;" parent="1" vertex="1">
          <mxGeometry x="1215.63" y="267" width="61.74" height="20" as="geometry" />
        </mxCell>
        <mxCell id="L8EaPlabEkE5flBV4axa-7" style="edgeStyle=orthogonalEdgeStyle;rounded=0;orthogonalLoop=1;jettySize=auto;html=1;exitX=1;exitY=0.5;exitDx=0;exitDy=0;entryX=0.5;entryY=1;entryDx=0;entryDy=0;endArrow=none;endFill=0;" parent="1" source="L8EaPlabEkE5flBV4axa-4" target="FtTrVJw0tq06EMOVsZJ_-161" edge="1">
          <mxGeometry relative="1" as="geometry" />
        </mxCell>
        <mxCell id="L8EaPlabEkE5flBV4axa-4" value="Associazione" style="shape=rhombus;perimeter=rhombusPerimeter;whiteSpace=wrap;html=1;align=center;" parent="1" vertex="1">
          <mxGeometry x="1217.51" y="957" width="120" height="60" as="geometry" />
        </mxCell>
        <mxCell id="L8EaPlabEkE5flBV4axa-8" value="N" style="text;html=1;strokeColor=none;fillColor=none;align=center;verticalAlign=middle;whiteSpace=wrap;rounded=0;fontColor=#FF0000;" parent="1" vertex="1">
          <mxGeometry x="1173.78" y="857" width="10" height="10" as="geometry" />
        </mxCell>
        <mxCell id="L8EaPlabEkE5flBV4axa-9" value="1" style="text;html=1;strokeColor=none;fillColor=none;align=center;verticalAlign=middle;whiteSpace=wrap;rounded=0;fontColor=#FF0000;" parent="1" vertex="1">
          <mxGeometry x="1230.28" y="857" width="10" height="10" as="geometry" />
        </mxCell>
        <mxCell id="L8EaPlabEkE5flBV4axa-10" value="M" style="text;html=1;strokeColor=none;fillColor=none;align=center;verticalAlign=middle;whiteSpace=wrap;rounded=0;fontColor=#FF0000;" parent="1" vertex="1">
          <mxGeometry x="1244.26" y="957" width="10" height="10" as="geometry" />
        </mxCell>
        <mxCell id="L8EaPlabEkE5flBV4axa-11" value="N" style="text;html=1;strokeColor=none;fillColor=none;align=center;verticalAlign=middle;whiteSpace=wrap;rounded=0;fontColor=#FF0000;" parent="1" vertex="1">
          <mxGeometry x="1300.76" y="957" width="10" height="10" as="geometry" />
        </mxCell>
        <mxCell id="L8EaPlabEkE5flBV4axa-12" value="(1,N)" style="text;html=1;align=center;verticalAlign=middle;whiteSpace=wrap;rounded=0;fontColor=#FF0000;" parent="1" vertex="1">
          <mxGeometry x="1455.75" y="917" width="40" height="20" as="geometry" />
        </mxCell>
        <mxCell id="L8EaPlabEkE5flBV4axa-13" value="(0,N)" style="text;html=1;align=center;verticalAlign=middle;whiteSpace=wrap;rounded=0;fontColor=#FF0000;" parent="1" vertex="1">
          <mxGeometry x="1053.25" y="917" width="40" height="20" as="geometry" />
        </mxCell>
        <mxCell id="izS-Pc84o4L70vQIA0t2-4" value="&lt;font style=&quot;font-size: 9px&quot;&gt;Sostituzione&lt;/font&gt;" style="text;html=1;strokeColor=none;fillColor=none;align=center;verticalAlign=middle;whiteSpace=wrap;rounded=0;" parent="1" vertex="1">
          <mxGeometry x="1053.25" y="477" width="58" height="20" as="geometry" />
        </mxCell>
        <mxCell id="VWWuzck4U35PcZzD3d7Q-10" style="edgeStyle=none;rounded=0;orthogonalLoop=1;jettySize=auto;html=1;exitX=0;exitY=0.5;exitDx=0;exitDy=0;entryX=1;entryY=0.5;entryDx=0;entryDy=0;fontSize=11;endArrow=none;endFill=0;" parent="1" source="VWWuzck4U35PcZzD3d7Q-5" target="VWWuzck4U35PcZzD3d7Q-9" edge="1">
          <mxGeometry relative="1" as="geometry" />
        </mxCell>
        <mxCell id="VWWuzck4U35PcZzD3d7Q-5" value="&lt;span style=&quot;font-size: 11px&quot;&gt;DATI&lt;br&gt;DIPENDENTE&lt;/span&gt;" style="shape=rhombus;perimeter=rhombusPerimeter;whiteSpace=wrap;html=1;align=center;" parent="1" vertex="1">
          <mxGeometry x="967.5" y="207" width="120" height="60" as="geometry" />
        </mxCell>
        <mxCell id="VWWuzck4U35PcZzD3d7Q-16" style="edgeStyle=none;rounded=0;orthogonalLoop=1;jettySize=auto;html=1;exitX=0.75;exitY=1;exitDx=0;exitDy=0;entryX=0.5;entryY=0;entryDx=0;entryDy=0;fontSize=11;endArrow=oval;endFill=0;" parent="1" source="VWWuzck4U35PcZzD3d7Q-9" target="uWJtjKGiHwzr4gWqTYHl-64" edge="1">
          <mxGeometry relative="1" as="geometry" />
        </mxCell>
        <mxCell id="VWWuzck4U35PcZzD3d7Q-17" style="edgeStyle=none;rounded=0;orthogonalLoop=1;jettySize=auto;html=1;exitX=0.75;exitY=0;exitDx=0;exitDy=0;entryX=0.5;entryY=1;entryDx=0;entryDy=0;fontSize=11;endArrow=oval;endFill=0;" parent="1" source="VWWuzck4U35PcZzD3d7Q-9" target="uWJtjKGiHwzr4gWqTYHl-62" edge="1">
          <mxGeometry relative="1" as="geometry" />
        </mxCell>
        <mxCell id="VWWuzck4U35PcZzD3d7Q-18" style="edgeStyle=none;rounded=0;orthogonalLoop=1;jettySize=auto;html=1;exitX=0.25;exitY=0;exitDx=0;exitDy=0;entryX=0.5;entryY=1;entryDx=0;entryDy=0;fontSize=11;endArrow=oval;endFill=0;" parent="1" source="VWWuzck4U35PcZzD3d7Q-9" target="uWJtjKGiHwzr4gWqTYHl-61" edge="1">
          <mxGeometry relative="1" as="geometry" />
        </mxCell>
        <mxCell id="VWWuzck4U35PcZzD3d7Q-19" style="edgeStyle=none;rounded=0;orthogonalLoop=1;jettySize=auto;html=1;exitX=0.5;exitY=0;exitDx=0;exitDy=0;entryX=0.5;entryY=1;entryDx=0;entryDy=0;fontSize=11;endArrow=oval;endFill=0;" parent="1" source="VWWuzck4U35PcZzD3d7Q-9" target="uWJtjKGiHwzr4gWqTYHl-63" edge="1">
          <mxGeometry relative="1" as="geometry">
            <mxPoint x="811" y="237" as="targetPoint" />
          </mxGeometry>
        </mxCell>
        <mxCell id="VWWuzck4U35PcZzD3d7Q-20" style="edgeStyle=none;rounded=0;orthogonalLoop=1;jettySize=auto;html=1;exitX=0.25;exitY=1;exitDx=0;exitDy=0;entryX=0.5;entryY=0;entryDx=0;entryDy=0;fontSize=11;endArrow=oval;endFill=0;" parent="1" source="VWWuzck4U35PcZzD3d7Q-9" target="uWJtjKGiHwzr4gWqTYHl-65" edge="1">
          <mxGeometry relative="1" as="geometry" />
        </mxCell>
        <mxCell id="VWWuzck4U35PcZzD3d7Q-9" value="&lt;b&gt;SCHEDA&lt;br&gt;DIPENDENTE&lt;/b&gt;" style="whiteSpace=wrap;html=1;align=center;fontSize=11;" parent="1" vertex="1">
          <mxGeometry x="829.52" y="217" width="100" height="40" as="geometry" />
        </mxCell>
        <mxCell id="VWWuzck4U35PcZzD3d7Q-21" value="" style="endArrow=oval;html=1;rounded=0;fontSize=11;endFill=1;fontColor=#FF0000;" parent="1" edge="1">
          <mxGeometry width="50" height="50" relative="1" as="geometry">
            <mxPoint x="962.24" y="199.26" as="sourcePoint" />
            <mxPoint x="962.24" y="259.5" as="targetPoint" />
          </mxGeometry>
        </mxCell>
        <mxCell id="VWWuzck4U35PcZzD3d7Q-22" value="NomeCategoria" style="text;html=1;strokeColor=none;fillColor=none;align=center;verticalAlign=middle;whiteSpace=wrap;rounded=0;fontSize=9;" parent="1" vertex="1">
          <mxGeometry x="1460.94" y="827" width="66" height="20" as="geometry" />
        </mxCell>
        <mxCell id="VWWuzck4U35PcZzD3d7Q-23" value="DestinazioneUso" style="text;html=1;strokeColor=none;fillColor=none;align=center;verticalAlign=middle;whiteSpace=wrap;rounded=0;fontSize=9;" parent="1" vertex="1">
          <mxGeometry x="1563.75" y="842" width="80" height="25" as="geometry" />
        </mxCell>
        <mxCell id="C01RRlH5eo6Ali7Qf63X-7" style="edgeStyle=orthogonalEdgeStyle;rounded=0;orthogonalLoop=1;jettySize=auto;html=1;entryX=0.75;entryY=1;entryDx=0;entryDy=0;endArrow=none;endFill=0;" parent="1" source="VWWuzck4U35PcZzD3d7Q-24" target="gx2fqg2UMWbFpVax5CwM-2" edge="1">
          <mxGeometry relative="1" as="geometry" />
        </mxCell>
        <mxCell id="VWWuzck4U35PcZzD3d7Q-24" value="&lt;font style=&quot;font-size: 9px&quot;&gt;APPARTENENZA&lt;br&gt;ACCESSORIA&lt;br&gt;&lt;/font&gt;" style="shape=rhombus;perimeter=rhombusPerimeter;whiteSpace=wrap;html=1;align=center;" parent="1" vertex="1">
          <mxGeometry x="1288.47" y="867" width="120" height="60" as="geometry" />
        </mxCell>
        <mxCell id="VWWuzck4U35PcZzD3d7Q-37" value="(0,1)" style="text;html=1;strokeColor=none;fillColor=none;align=center;verticalAlign=middle;whiteSpace=wrap;rounded=0;fontColor=#FF0000;" parent="1" vertex="1">
          <mxGeometry x="1311.25" y="799.5" width="33" height="20" as="geometry" />
        </mxCell>
        <mxCell id="VWWuzck4U35PcZzD3d7Q-38" value="N" style="text;html=1;strokeColor=none;fillColor=none;align=center;verticalAlign=middle;whiteSpace=wrap;rounded=0;fontColor=#FF0000;" parent="1" vertex="1">
          <mxGeometry x="1312.53" y="857" width="10" height="10" as="geometry" />
        </mxCell>
        <mxCell id="VWWuzck4U35PcZzD3d7Q-39" value="1" style="text;html=1;strokeColor=none;fillColor=none;align=center;verticalAlign=middle;whiteSpace=wrap;rounded=0;fontColor=#FF0000;" parent="1" vertex="1">
          <mxGeometry x="1374.28" y="857" width="10" height="10" as="geometry" />
        </mxCell>
        <mxCell id="VWWuzck4U35PcZzD3d7Q-40" value="(1,N)" style="text;html=1;align=center;verticalAlign=middle;whiteSpace=wrap;rounded=0;fontColor=#FF0000;" parent="1" vertex="1">
          <mxGeometry x="1403.94" y="877" width="40" height="20" as="geometry" />
        </mxCell>
        <mxCell id="VWWuzck4U35PcZzD3d7Q-47" style="edgeStyle=none;rounded=0;orthogonalLoop=1;jettySize=auto;html=1;exitX=0.75;exitY=1;exitDx=0;exitDy=0;fontSize=11;endArrow=oval;endFill=0;entryX=0.25;entryY=0;entryDx=0;entryDy=0;" parent="1" source="gx2fqg2UMWbFpVax5CwM-1" target="jzE8oIi-crpwVp-MOxEN-43" edge="1">
          <mxGeometry relative="1" as="geometry">
            <mxPoint x="986" y="790" as="targetPoint" />
          </mxGeometry>
        </mxCell>
        <mxCell id="VWWuzck4U35PcZzD3d7Q-48" style="edgeStyle=none;rounded=0;orthogonalLoop=1;jettySize=auto;html=1;exitX=1;exitY=1;exitDx=0;exitDy=0;entryX=0.5;entryY=0;entryDx=0;entryDy=0;fontSize=11;endArrow=oval;endFill=0;" parent="1" source="gx2fqg2UMWbFpVax5CwM-1" target="jzE8oIi-crpwVp-MOxEN-42" edge="1">
          <mxGeometry relative="1" as="geometry">
            <mxPoint x="990.5149999999999" y="512" as="targetPoint" />
          </mxGeometry>
        </mxCell>
        <mxCell id="C01RRlH5eo6Ali7Qf63X-18" value="(1,1)" style="text;html=1;strokeColor=none;fillColor=none;align=center;verticalAlign=middle;whiteSpace=wrap;rounded=0;fontColor=#FF0000;direction=east;" parent="1" vertex="1">
          <mxGeometry x="1094.5" y="217" width="33" height="20" as="geometry" />
        </mxCell>
        <mxCell id="C01RRlH5eo6Ali7Qf63X-19" value="(1,1)" style="text;html=1;strokeColor=none;fillColor=none;align=center;verticalAlign=middle;whiteSpace=wrap;rounded=0;fontColor=#FF0000;direction=east;" parent="1" vertex="1">
          <mxGeometry x="929.52" y="217" width="33" height="20" as="geometry" />
        </mxCell>
        <mxCell id="C01RRlH5eo6Ali7Qf63X-21" value="Telefono" style="text;html=1;strokeColor=none;fillColor=none;align=center;verticalAlign=middle;whiteSpace=wrap;rounded=0;fontSize=9;fontColor=#000000;" parent="1" vertex="1">
          <mxGeometry x="1602.7199999999998" y="794.5" width="44.25" height="25" as="geometry" />
        </mxCell>
        <mxCell id="C01RRlH5eo6Ali7Qf63X-22" value="E-mail" style="text;html=1;strokeColor=none;fillColor=none;align=center;verticalAlign=middle;whiteSpace=wrap;rounded=0;fontSize=9;fontColor=#000000;" parent="1" vertex="1">
          <mxGeometry x="1637.72" y="779.5" width="30" height="25" as="geometry" />
        </mxCell>
        <mxCell id="C01RRlH5eo6Ali7Qf63X-25" style="edgeStyle=none;rounded=0;orthogonalLoop=1;jettySize=auto;html=1;exitX=1;exitY=1;exitDx=0;exitDy=0;fontSize=11;endArrow=oval;endFill=0;entryX=0.25;entryY=0;entryDx=0;entryDy=0;" parent="1" source="gx2fqg2UMWbFpVax5CwM-10" target="C01RRlH5eo6Ali7Qf63X-22" edge="1">
          <mxGeometry relative="1" as="geometry">
            <mxPoint x="1637.72" y="532" as="sourcePoint" />
            <mxPoint x="1650" y="760" as="targetPoint" />
          </mxGeometry>
        </mxCell>
        <mxCell id="C01RRlH5eo6Ali7Qf63X-26" style="edgeStyle=none;rounded=0;orthogonalLoop=1;jettySize=auto;html=1;exitX=0.75;exitY=1;exitDx=0;exitDy=0;fontSize=11;endArrow=oval;endFill=0;entryX=0.5;entryY=0;entryDx=0;entryDy=0;" parent="1" source="gx2fqg2UMWbFpVax5CwM-10" target="C01RRlH5eo6Ali7Qf63X-21" edge="1">
          <mxGeometry relative="1" as="geometry">
            <mxPoint x="1612.72" y="532" as="sourcePoint" />
            <mxPoint x="1617.485" y="512" as="targetPoint" />
          </mxGeometry>
        </mxCell>
        <mxCell id="C01RRlH5eo6Ali7Qf63X-38" value="&lt;font style=&quot;font-size: 9px&quot; color=&quot;#999999&quot;&gt;(0,1)&lt;/font&gt;" style="text;html=1;strokeColor=none;fillColor=none;align=center;verticalAlign=middle;whiteSpace=wrap;rounded=0;fontColor=#000000;" parent="1" vertex="1">
          <mxGeometry x="1093.25" y="187" width="60" height="30" as="geometry" />
        </mxCell>
        <mxCell id="C01RRlH5eo6Ali7Qf63X-39" value="&lt;font style=&quot;font-size: 9px&quot; color=&quot;#999999&quot;&gt;(0,1)&lt;/font&gt;" style="text;html=1;strokeColor=none;fillColor=none;align=center;verticalAlign=middle;whiteSpace=wrap;rounded=0;fontColor=#000000;" parent="1" vertex="1">
          <mxGeometry x="1129.5" y="187" width="60" height="30" as="geometry" />
        </mxCell>
        <mxCell id="C01RRlH5eo6Ali7Qf63X-40" value="&lt;font style=&quot;font-size: 9px&quot; color=&quot;#999999&quot;&gt;(0,1)&lt;/font&gt;" style="text;html=1;strokeColor=none;fillColor=none;align=center;verticalAlign=middle;whiteSpace=wrap;rounded=0;fontColor=#000000;" parent="1" vertex="1">
          <mxGeometry x="1189.5" y="187" width="60" height="30" as="geometry" />
        </mxCell>
        <mxCell id="C01RRlH5eo6Ali7Qf63X-41" value="&lt;font style=&quot;font-size: 9px&quot; color=&quot;#999999&quot;&gt;(0,1)&lt;/font&gt;" style="text;html=1;strokeColor=none;fillColor=none;align=center;verticalAlign=middle;whiteSpace=wrap;rounded=0;fontColor=#000000;" parent="1" vertex="1">
          <mxGeometry x="1226.5" y="192" width="60" height="30" as="geometry" />
        </mxCell>
        <mxCell id="C01RRlH5eo6Ali7Qf63X-47" value="&lt;font style=&quot;font-size: 9px&quot; color=&quot;#999999&quot;&gt;(0,1)&lt;/font&gt;" style="text;html=1;strokeColor=none;fillColor=none;align=center;verticalAlign=middle;whiteSpace=wrap;rounded=0;fontColor=#000000;" parent="1" vertex="1">
          <mxGeometry x="1196.5" y="347" width="60" height="30" as="geometry" />
        </mxCell>
        <mxCell id="C01RRlH5eo6Ali7Qf63X-48" value="&lt;font style=&quot;font-size: 9px&quot; color=&quot;#999999&quot;&gt;(0,1)&lt;/font&gt;" style="text;html=1;strokeColor=none;fillColor=none;align=center;verticalAlign=middle;whiteSpace=wrap;rounded=0;fontColor=#000000;" parent="1" vertex="1">
          <mxGeometry x="1210.25" y="444.5" width="60" height="30" as="geometry" />
        </mxCell>
        <mxCell id="MCIsHccLF8EZkCHqBZjg-1" value="N" style="text;html=1;strokeColor=none;fillColor=none;align=center;verticalAlign=middle;whiteSpace=wrap;rounded=0;fontColor=#FF0000;" parent="1" vertex="1">
          <mxGeometry x="1143.75" y="517" width="10" height="10" as="geometry" />
        </mxCell>
        <mxCell id="MCIsHccLF8EZkCHqBZjg-2" value="1" style="text;html=1;strokeColor=none;fillColor=none;align=center;verticalAlign=middle;whiteSpace=wrap;rounded=0;fontColor=#FF0000;" parent="1" vertex="1">
          <mxGeometry x="1200.25" y="517" width="10" height="10" as="geometry" />
        </mxCell>
      </root>
    </mxGraphModel>
  </diagram>
</mxfile>
